<svg width="256" height="256" viewBox="0 0 256 256" fill="none" xmlns="http://www.w3.org/2000/svg">
  <rect width="256" height="256" rx="64" fill="url(#gradient)"/>
  <defs>
    <linearGradient id="gradient" x1="0%" y1="0%" x2="100%" y2="100%">
      <stop offset="0%" style="stop-color:#FFB6C1;stop-opacity:1" />
      <stop offset="50%" style="stop-color:#E91E63;stop-opacity:1" />
      <stop offset="100%" style="stop-color:#9C27B0;stop-opacity:1" />
    </linearGradient>
  </defs>
  <!-- Lotus flower -->
  <g transform="translate(128,128)">
    <!-- Center circle -->
    <circle cx="0" cy="0" r="15" fill="#FFF"/>
    <!-- Outer petals -->
    <ellipse cx="0" cy="-45" rx="15" ry="30" fill="#FFF" opacity="0.9"/>
    <ellipse cx="32" cy="-32" rx="15" ry="30" fill="#FFF" opacity="0.9" transform="rotate(45)"/>
    <ellipse cx="45" cy="0" rx="15" ry="30" fill="#FFF" opacity="0.9" transform="rotate(90)"/>
    <ellipse cx="32" cy="32" rx="15" ry="30" fill="#FFF" opacity="0.9" transform="rotate(135)"/>
    <ellipse cx="0" cy="45" rx="15" ry="30" fill="#FFF" opacity="0.9" transform="rotate(180)"/>
    <ellipse cx="-32" cy="32" rx="15" ry="30" fill="#FFF" opacity="0.9" transform="rotate(225)"/>
    <ellipse cx="-45" cy="0" rx="15" ry="30" fill="#FFF" opacity="0.9" transform="rotate(270)"/>
    <ellipse cx="-32" cy="-32" rx="15" ry="30" fill="#FFF" opacity="0.9" transform="rotate(315)"/>
    <!-- Inner petals -->
    <ellipse cx="0" cy="-25" rx="10" ry="20" fill="#FFF" opacity="0.8"/>
    <ellipse cx="18" cy="-18" rx="10" ry="20" fill="#FFF" opacity="0.8" transform="rotate(45)"/>
    <ellipse cx="25" cy="0" rx="10" ry="20" fill="#FFF" opacity="0.8" transform="rotate(90)"/>
    <ellipse cx="18" cy="18" rx="10" ry="20" fill="#FFF" opacity="0.8" transform="rotate(135)"/>
    <ellipse cx="0" cy="25" rx="10" ry="20" fill="#FFF" opacity="0.8" transform="rotate(180)"/>
    <ellipse cx="-18" cy="18" rx="10" ry="20" fill="#FFF" opacity="0.8" transform="rotate(225)"/>
    <ellipse cx="-25" cy="0" rx="10" ry="20" fill="#FFF" opacity="0.8" transform="rotate(270)"/>
    <ellipse cx="-18" cy="-18" rx="10" ry="20" fill="#FFF" opacity="0.8" transform="rotate(315)"/>
  </g>
</svg>
